<svg xmlns="http://www.w3.org/2000/svg" width="125.232" height="30.028" viewBox="0 0 125.232 30.028">
  <g id="Logo_Dark" data-name="Logo Dark" transform="translate(-11548.518 3252)">
    <g id="Group_11559" data-name="Group 11559" transform="translate(11056.916 -3444.75)">
      <path id="Path_13454" data-name="Path 13454" d="M521.285,405.641H492.547a1.134,1.134,0,0,1-.653-1.181c.015-4.319.008-8.638.008-12.957v-.378c.139.063.235.1.329.15q7.023,3.5,14.041,7a1.311,1.311,0,0,0,1.3,0q7.04-3.525,14.1-7.023a2.348,2.348,0,0,1,.268-.1V405A1.354,1.354,0,0,1,521.285,405.641Z" transform="translate(-0.27 -182.862)" fill="#7811ff"/>
      <path id="Path_13456" data-name="Path 13456" d="M854.758,320.115l-1.8.878v-4.771c.54.407,1.049.778,1.543,1.17a1.56,1.56,0,0,1,.259.377Z" transform="translate(-333.097 -113.817)" fill="#7811ff"/>
      <path id="Path_13457" data-name="Path 13457" d="M653.17,192.75l2.335,1.687-.024.053H650.3l2.4-1.74Z" transform="translate(-146.289 0)" fill="#7811ff"/>
      <path id="Path_13459" data-name="Path 13459" d="M549.132,237.75h10.35c.744,0,1.066.324,1.066,1.074q0,5.219.005,10.438a.4.4,0,0,1-.261.42q-5.482,2.717-10.955,5.454a.449.449,0,0,1-.458-.008q-5.461-2.727-10.93-5.439a.416.416,0,0,1-.28-.438q.014-5.234.007-10.467a.911.911,0,0,1,1.048-1.033Zm-.02,7.038q2.592,0,5.185,0a.891.891,0,0,0,.883-.508.873.873,0,0,0-.839-1.251c-1.807-.005-3.613,0-5.419,0q-2.5,0-5.009,0a.882.882,0,1,0-.014,1.759C545.636,244.79,547.374,244.787,549.112,244.787Zm-2.642,1.759q-1.259,0-2.518,0a.886.886,0,1,0-.009,1.759q2.532,0,5.065,0a.884.884,0,1,0,.009-1.758C548.168,246.545,547.319,246.547,546.47,246.547Z" transform="translate(-42.465 -41.481)" fill="#7811ff"/>
      <path id="Path_13460" data-name="Path 13460" d="M493.445,316.191v4.779a8.661,8.661,0,0,0-1.084-.524.946.946,0,0,1-.74-1.185c.06-.411-.018-.842.024-1.257a1.054,1.054,0,0,1,.268-.647C492.38,316.948,492.9,316.6,493.445,316.191Z" transform="translate(0 -113.788)" fill="#7811ff"/>
    </g>
    <path id="Path_13461" data-name="Path 13461" d="M1.452,0H4.268V-9.834L8.4,0h2.244l4.136-9.834V0H17.6V-15.4H14.234L9.526-4.246,4.818-15.4H1.452Zm23.21-11.264A4.462,4.462,0,0,0,20-7.656l2.464.44a2.085,2.085,0,0,1,2.2-1.936,1.969,1.969,0,0,1,2.2,2.024v.11l-2.068.2c-3.3.352-4.95,1.518-4.95,3.7a3.39,3.39,0,0,0,3.7,3.3,3.876,3.876,0,0,0,3.322-1.782V0h2.684V-6.754C29.546-9.7,27.566-11.264,24.662-11.264ZM24.156-1.87c-1.012,0-1.628-.572-1.628-1.342,0-.792.748-1.408,2.222-1.584l2.112-.242V-4.8A2.682,2.682,0,0,1,24.156-1.87Zm9.482-10.912A1.7,1.7,0,0,0,35.4-14.5a1.7,1.7,0,0,0-1.76-1.694A1.672,1.672,0,0,0,31.922-14.5,1.677,1.677,0,0,0,33.638-12.782ZM32.252,0h2.772V-11.088H32.252Zm5.456,0H40.48V-15.576H37.708Zm5.566,0h5.038c4.246,0,7.9-2.53,7.9-7.7s-3.652-7.7-7.9-7.7H43.274Zm2.948-2.6v-10.23h1.826c2.64,0,5.126,1.364,5.126,5.126s-2.486,5.1-5.126,5.1ZM62.59-11.264a4.462,4.462,0,0,0-4.664,3.608l2.464.44a2.085,2.085,0,0,1,2.2-1.936,1.969,1.969,0,0,1,2.2,2.024v.11l-2.068.2c-3.3.352-4.95,1.518-4.95,3.7a3.39,3.39,0,0,0,3.7,3.3A3.876,3.876,0,0,0,64.79-1.606V0h2.684V-6.754C67.474-9.7,65.494-11.264,62.59-11.264ZM62.084-1.87c-1.012,0-1.628-.572-1.628-1.342,0-.792.748-1.408,2.222-1.584l2.112-.242V-4.8A2.682,2.682,0,0,1,62.084-1.87ZM74.052.176c2.552,0,4.268-1.54,4.268-3.454,0-4.532-6.094-2.97-6.094-4.928,0-.638.594-1.012,1.474-1.012a2.253,2.253,0,0,1,2.178,1.606l2.244-.946c-.484-1.606-2.31-2.706-4.466-2.706-2.42,0-3.938,1.364-3.938,3.1,0,4.2,6.05,2.838,6.05,4.928,0,.7-.682,1.254-1.716,1.254a2.633,2.633,0,0,1-2.574-2.046L69.212-3.1A4.91,4.91,0,0,0,74.052.176ZM80.322,0h2.772V-4.818c0-2.508.968-3.982,2.684-3.982a2.051,2.051,0,0,1,2.2,2.222V0H90.75V-7.26a3.835,3.835,0,0,0-4.136-4,3.938,3.938,0,0,0-3.52,1.892v-6.2H80.322Z" transform="translate(11583 -3225.808)" fill="#090e30"/>
  </g>
</svg>
