<svg xmlns="http://www.w3.org/2000/svg" width="30.06" height="30.028" viewBox="0 0 30.06 30.028">
  <g id="Group_11559" data-name="Group 11559" transform="translate(-491.602 -192.75)">
    <path id="Path_13454" data-name="Path 13454" d="M521.285,405.641H492.547a1.134,1.134,0,0,1-.653-1.181c.015-4.319.008-8.638.008-12.957v-.378c.139.063.235.1.329.15q7.023,3.5,14.041,7a1.311,1.311,0,0,0,1.3,0q7.04-3.525,14.1-7.023a2.348,2.348,0,0,1,.268-.1V405A1.354,1.354,0,0,1,521.285,405.641Z" transform="translate(-0.27 -182.862)" fill="#7811ff"/>
    <path id="Path_13456" data-name="Path 13456" d="M854.758,320.115l-1.8.878v-4.771c.54.407,1.049.778,1.543,1.17a1.56,1.56,0,0,1,.259.377Z" transform="translate(-333.097 -113.817)" fill="#7811ff"/>
    <path id="Path_13457" data-name="Path 13457" d="M653.17,192.75l2.335,1.687-.024.053H650.3l2.4-1.74Z" transform="translate(-146.289 0)" fill="#7811ff"/>
    <path id="Path_13459" data-name="Path 13459" d="M549.132,237.75h10.35c.744,0,1.066.324,1.066,1.074q0,5.219.005,10.438a.4.4,0,0,1-.261.42q-5.482,2.717-10.955,5.454a.449.449,0,0,1-.458-.008q-5.461-2.727-10.93-5.439a.416.416,0,0,1-.28-.438q.014-5.234.007-10.467a.911.911,0,0,1,1.048-1.033Zm-.02,7.038q2.592,0,5.185,0a.891.891,0,0,0,.883-.508.873.873,0,0,0-.839-1.251c-1.807-.005-3.613,0-5.419,0q-2.5,0-5.009,0a.882.882,0,1,0-.014,1.759C545.636,244.79,547.374,244.787,549.112,244.787Zm-2.642,1.759q-1.259,0-2.518,0a.886.886,0,1,0-.009,1.759q2.532,0,5.065,0a.884.884,0,1,0,.009-1.758C548.168,246.545,547.319,246.547,546.47,246.547Z" transform="translate(-42.465 -41.481)" fill="#7811ff"/>
    <path id="Path_13460" data-name="Path 13460" d="M493.445,316.191v4.779a8.661,8.661,0,0,0-1.084-.524.946.946,0,0,1-.74-1.185c.06-.411-.018-.842.024-1.257a1.054,1.054,0,0,1,.268-.647C492.38,316.948,492.9,316.6,493.445,316.191Z" transform="translate(0 -113.788)" fill="#7811ff"/>
  </g>
</svg>
